<svg id="Layer_1" data-name="Layer 1" xmlns="http://www.w3.org/2000/svg" viewBox="0 0 732.16 203.64">
  <defs>
    <style>
      .cls-1 {
        fill: #fff;
      }
    </style>
  </defs>
  <path class="cls-1" d="M153.52,152.17l1.18.59c-6.82,14.81-20.3,22.51-33.93,22.51-20.28,0-41.01-17.62-41.01-53.16s21.16-53.77,45.02-53.77c8.89,0,18.18,2.65,26.82,7.66.3.16.57.32.87.5l-.21,5.15c-1.14,2.65-2.21,5.34-3.26,8.07-.59-1.05-1.23-2.05-1.89-3.03-7.11-10.6-16.59-16.11-25.75-16.11-15.7,0-30.51,16.43-30.51,51.54,0,32.58,17.63,47.23,34.95,47.23,10.96,0,21.92-6.06,27.71-17.18h.01ZM177.46,152.63v-83.99l-16.79,4.4-.82.2v.43c.16,0,.34,0,.5.02,5.95.16,7.63,3.81,7.93,19.09v61.75c-.3,15.56-2.07,18.96-8.43,18.96v.46h26.07v-.46c-6.52,0-8.29-3.69-8.45-20.87h-.01ZM330.01,165.07c-2.37,3.99-4.88,5.76-7.11,5.76-2.96,0-5.04-3.1-5.04-8.43v-63.98l-17.61,4.58v.46c6.36,0,8.29,3.39,8.43,18.96v20.14c-.59,19.25-12.14,29.62-22.65,29.62-8.59,0-16.45-7.27-16.45-22.51v-51.24l-17.64,4.58v.46c6.38,0,8.16,3.39,8.45,18.96v27.25c0,17.48,10.66,26.07,22.08,26.07,10.8,0,22.22-7.7,26.2-22.97v11.42c0,7.7,4.01,11.55,8.75,11.55,4.44,0,9.62-3.42,13.03-10.53l-.46-.14h.02ZM402.57,165.51l.46.16c-3.41,7.11-8.59,10.5-13.03,10.5-4.9,0-8.75-3.85-8.75-11.55v-11.69c-4.45,15.4-14.95,22.81-25.02,22.81-12.6,0-24.61-11.26-24.61-32.88,0-24.88,19.42-42.65,49.63-42.65v-7.41c-.3-15.7-2.07-19.12-8.43-19.12v-.43l17.61-4.6v94.19c0,5.33,2.08,8.45,5.04,8.45,2.23,0,4.74-1.78,7.11-5.79h-.01ZM381.26,138.4v-36.59c-22.52,0-39.24,15.11-39.24,41.04,0,18.67,8.59,28.44,18.36,28.44s19.98-10.66,20.87-32.88h.01ZM346.85,63.03l-.21.02c-43.76,6.09-80.76-.28-115.63-8.48-11.52,12.82-21.01,27.82-28.91,44.89-.11.24-.23.45-.32.68-.85,1.84-1.66,3.71-2.46,5.59,5.01-4.7,11.6-7.61,19.77-7.61,42.36,0,42.22,77.61,0,77.61-27.99,0-37.42-34.1-28.3-57.1,0,0,0,0,0,0,1.44-3.74,5.16-12.54,6.72-16.1,8.28-18.91,18.21-35.13,30.12-48.8-45.01-10.7-87.1-23.98-136.23-17.35-106.08,14.78-97.17,142.81-2.25,165.04l-.33,2.22c-118.42-22.22-119.18-152.45,2.28-169.38l.21-.05c51.64-7.18,94.39,6,138.98,16.77,24.78-26.73,57.97-43.13,102.78-49.37l.42-.05h-.01c86.67-12.08,99.8,49.41,13.37,61.47ZM219.09,174.09c29.03,0,28.89-74.35,0-74.35s-28.89,74.35,0,74.35ZM333.83,3.91c-38.64,5.38-73.27,19.12-100.39,47.93,34.66,8.2,70.64,14.95,113.12,9.03,67.02-9.35,53.85-66.26-12.73-56.96Z"/>
  <path class="cls-1" d="M524.55,173.5c-6.02-.25-7.7-4.24-7.84-21.03v-54.34l-17.64,4.74v.3c6.36,0,8.13,3.39,8.43,19.09v32.15c-.3,15.7-2.07,19.09-8.43,19.09v.46h26.07v-.46h-.59,0ZM510.63,75.32c-2.83,0-5.63,2.07-5.63,6.22,0,5.33,2.8,8,5.63,8,2.67,0,5.47-2.67,5.47-8,0-4.15-2.8-6.22-5.47-6.22h0ZM590.46,152.47c.16,17.34,1.93,21.03,8.45,21.03v.46h-25.93v-.46c6.22,0,8.15-3.39,8.45-19.09v-30.08c0-15.24-7.86-22.35-16.59-22.35-10.53,0-22.37,10.66-22.67,30.35v20.14c.16,17.34,1.93,21.03,8.45,21.03v.46h-26.07v-.46h.3c6.1-.11,7.83-3.64,8.13-19.09v-32.15c-.3-15.7-2.07-19.09-8.43-19.09v-.3l17.61-4.74v23.24c4.01-15.4,15.24-23.1,26.36-23.1s21.33,8.15,21.92,24.74v29.46h.02ZM496.57,152.47c.16,17.34,1.93,21.03,8.45,21.03v.46h-25.93v-.46c6.22,0,8.15-3.39,8.45-19.09v-30.08c0-15.24-7.86-22.35-16.59-22.35-10.53,0-22.37,10.66-22.67,30.35v20.14c.16,17.34,1.93,21.03,8.45,21.03v.46h-26.07v-.46h.3c6.1-.11,7.83-3.64,8.13-19.09v-32.15c-.3-15.7-2.07-19.09-8.43-19.09v-.3l17.61-4.74v23.24c4.01-15.4,15.24-23.1,26.36-23.1s21.33,8.15,21.92,24.74v29.46h.02ZM656.95,157.21c-3.55,7.7-12.3,12.44-21.19,12.44-10.07,0-20.57-6.06-24.29-21.17,6.08-13.03,44.59-9.18,44.59-28.6,0-11.26-8.16-21.76-22.51-21.76-15.7,0-33.47,10.66-33.47,37.91s16.72,39.69,32.72,39.69c10.66,0,20.89-5.92,25.47-17.77l-1.32-.75h0ZM609.99,135.88c0-24.29,10.66-35.98,21.92-35.98,10.37,0,15.27,7.7,15.27,16.88,0,23.83-26.23,15.54-36.3,28.57-.59-2.8-.89-6.06-.89-9.48h0Z"/>
  <path class="cls-1" d="M592.39,100.69s.03-.34.08-.97c.03-.32.07-.7.11-1.16.02-.22.04-.47.07-.73.04-.26.07-.54.12-.83.09-.59.18-1.24.29-1.95.12-.7.28-1.46.44-2.27.17-.81.4-1.66.62-2.56.22-.91.53-1.83.82-2.8.32-.97.67-1.97,1.05-3.01.21-.51.42-1.03.62-1.56l.32-.8c.12-.27.24-.53.37-.8.24-.53.49-1.07.74-1.62.27-.54.55-1.08.82-1.63.14-.27.27-.55.42-.83.16-.27.31-.54.47-.82.32-.55.62-1.1.96-1.65.68-1.08,1.36-2.21,2.12-3.28.72-1.11,1.55-2.16,2.37-3.23,1.7-2.1,3.53-4.14,5.47-6.08,1.98-1.9,4.06-3.69,6.22-5.31,2.16-1.61,4.41-3.03,6.63-4.31,2.25-1.24,4.46-2.35,6.64-3.22.27-.12.54-.23.81-.34.27-.11.54-.2.81-.3.53-.2,1.07-.39,1.57-.59,1.05-.34,2.06-.67,3.04-.96.99-.26,1.92-.55,2.83-.75.91-.19,1.76-.4,2.58-.54s1.57-.27,2.28-.38c.71-.09,1.36-.17,1.95-.24.29-.03.57-.07.83-.1.27-.02.51-.03.74-.05.46-.03.85-.05,1.17-.07.63-.04.97-.06.97-.06,0,0-.32.07-.95.21-.62.14-1.53.3-2.66.6-.57.15-1.2.3-1.88.47-.67.2-1.41.4-2.2.62s-1.6.51-2.46.79c-.87.28-1.76.62-2.7.96-.93.36-1.89.76-2.88,1.17-.49.22-.98.44-1.49.67-.25.12-.51.22-.77.34-.25.12-.51.25-.76.37-.52.25-1.02.51-1.55.77-.52.27-1.03.56-1.56.85-1.06.55-2.1,1.2-3.16,1.81-2.11,1.31-4.19,2.77-6.26,4.34-2.04,1.61-4.04,3.33-5.93,5.17-1.89,1.84-3.67,3.78-5.33,5.78-1.61,2.03-3.15,4.07-4.51,6.14-.33.52-.65,1.05-.97,1.56-.16.26-.32.52-.48.77-.16.27-.31.52-.46.77-.3.52-.59,1.03-.88,1.53-.27.52-.54,1.02-.81,1.53-.56,1-.98,2.02-1.46,2.98-.44.97-.86,1.92-1.25,2.85-.36.93-.72,1.81-1.03,2.67-.3.86-.61,1.67-.86,2.45-.24.77-.47,1.51-.68,2.18-.18.68-.36,1.3-.52,1.86-.32,1.12-.51,2.04-.67,2.66-.16.62-.23.94-.23.94v-.02ZM722.58,119.62s-.09.33-.24.96c-.16.63-.34,1.56-.67,2.71-.17.57-.33,1.22-.53,1.91-.21.68-.44,1.43-.69,2.22-.26.79-.57,1.62-.87,2.5-.32.87-.69,1.78-1.06,2.73-.4.94-.82,1.91-1.28,2.9-.5.97-.93,2.01-1.51,3.04-.27.51-.55,1.02-.83,1.56-.3.52-.61,1.03-.92,1.56-.15.26-.31.52-.47.79s-.32.52-.49.79c-.34.52-.66,1.06-1.01,1.59-1.4,2.11-3,4.18-4.67,6.24-1.71,2.02-3.55,3.99-5.51,5.84-1.96,1.85-4.03,3.57-6.13,5.19-2.13,1.57-4.29,3.04-6.47,4.34-1.12.61-2.19,1.25-3.27,1.8-.54.28-1.07.57-1.61.83-.53.26-1.07.51-1.6.75-.27.12-.53.25-.79.37s-.52.22-.78.33c-.52.22-1.03.43-1.54.65-1.02.39-2.01.78-2.97,1.12-1.92.67-3.71,1.22-5.32,1.66-.8.21-1.56.39-2.26.58-.71.15-1.36.3-1.94.42-1.17.27-2.1.41-2.73.53-.63.12-.97.18-.97.18,0,0,.35-.02.99-.03.32,0,.72-.02,1.19-.05.23,0,.49-.02.76-.03.27-.03.55-.06.85-.08.6-.06,1.27-.12,2-.19.72-.1,1.51-.22,2.34-.34.83-.13,1.71-.32,2.65-.5.93-.18,1.9-.46,2.91-.7,1-.27,2.04-.59,3.12-.92.53-.19,1.07-.37,1.62-.57.27-.1.55-.19.83-.29.27-.11.55-.22.82-.33,2.25-.85,4.54-1.93,6.85-3.16,2.29-1.28,4.62-2.68,6.85-4.3,2.22-1.63,4.38-3.42,6.43-5.34,2.01-1.96,3.9-4.02,5.66-6.15.84-1.09,1.7-2.16,2.45-3.28.79-1.1,1.49-2.23,2.2-3.34.35-.56.66-1.12.99-1.68.17-.28.32-.56.48-.83.14-.28.29-.57.43-.85.29-.56.57-1.12.86-1.66.26-.56.52-1.12.77-1.66.12-.27.25-.54.37-.81.12-.27.22-.53.34-.81.21-.53.43-1.07.64-1.59.39-1.07.75-2.08,1.08-3.07.29-1,.62-1.95.85-2.86.22-.92.46-1.79.64-2.61.17-.83.32-1.61.47-2.32.12-.72.21-1.39.3-1.99.04-.3.08-.58.12-.85.03-.27.05-.52.07-.75.04-.47.07-.87.11-1.18.06-.65.09-.99.09-.99v.03ZM665.13,44.76s.33.07.96.2c.62.13,1.54.28,2.69.57.57.14,1.21.29,1.9.46.68.19,1.42.4,2.21.62.79.22,1.61.51,2.49.78.87.28,1.77.62,2.72.95.94.36,1.91.76,2.9,1.17.5.22,1,.44,1.51.67.26.12.52.22.77.34.25.12.51.25.77.37.52.25,1.04.51,1.56.77.52.28,1.04.56,1.56.85.53.28,1.07.57,1.59.89.52.31,1.06.62,1.6.93,2.12,1.32,4.22,2.8,6.3,4.38,2.05,1.61,4.05,3.36,5.94,5.22,1.89,1.86,3.67,3.83,5.33,5.85,1.61,2.05,3.15,4.11,4.5,6.21.32.53.65,1.06.97,1.58.32.52.63,1.03.92,1.56.29.52.59,1.04.88,1.55.27.52.54,1.04.8,1.55.13.26.26.51.39.76.12.26.23.52.35.77.24.51.47,1,.71,1.49.43.98.85,1.95,1.23,2.87.36.94.72,1.84,1.02,2.71.3.87.61,1.69.85,2.46.23.78.45,1.52.67,2.2.18.69.35,1.32.51,1.89.32,1.14.51,2.06.66,2.67s.22.95.22.95c0,0-.02-.34-.07-.97-.02-.32-.06-.71-.1-1.17-.02-.23-.03-.47-.07-.74-.04-.26-.07-.54-.12-.83-.08-.59-.17-1.25-.27-1.96-.12-.71-.27-1.47-.43-2.29-.17-.82-.39-1.67-.6-2.59-.22-.91-.52-1.84-.81-2.83-.32-.97-.67-1.99-1.03-3.04-.21-.52-.42-1.04-.62-1.57-.11-.27-.22-.53-.32-.81-.12-.26-.24-.53-.36-.8-.92-2.17-2.08-4.39-3.38-6.62-1.33-2.21-2.81-4.44-4.48-6.58-1.69-2.13-3.53-4.19-5.49-6.14-1.99-1.91-4.1-3.7-6.25-5.36-1.1-.8-2.18-1.6-3.31-2.31-1.1-.74-2.25-1.38-3.35-2.05-.57-.31-1.13-.62-1.69-.92-.27-.16-.55-.31-.83-.45-.29-.13-.57-.27-.85-.4-.56-.27-1.12-.52-1.66-.78-.56-.24-1.12-.47-1.66-.7-.27-.12-.55-.23-.82-.34-.27-.11-.55-.2-.82-.31-.53-.19-1.07-.39-1.58-.58-1.06-.34-2.08-.67-3.06-.96-1-.26-1.94-.55-2.85-.74-.92-.18-1.77-.39-2.6-.53-.82-.13-1.59-.27-2.3-.37-.72-.07-1.37-.16-1.96-.22-.29-.03-.57-.07-.84-.09-.27-.02-.52-.03-.74-.05-.46-.03-.85-.05-1.17-.07-.63-.03-.97-.05-.97-.05h0ZM661.71,44v1.5h-.07l-2.81-3.5-3.81-4.67c-.13-.15-.26-.22-.47-.22-.2,0-.69.03-1.25.03-.86,0-1.39-.02-1.71-.03-.31,0-.44-.02-.52-.02l-.1.1v.45l.1.11.42.02c.82.02,1.41.94,1.41,1.91v1.48c0,2.43-.13,5.07-.15,5.38-.08,1.11-.35,1.63-.71,1.63h-.57l-.1.1v.42l.08.15c.17,0,1.3-.05,1.81-.05.77,0,1.76.05,1.92.05l.13-.13v-.39l-.13-.15h-.41c-.69,0-.99-.49-1.02-1.45-.02-.62-.17-2.65-.17-4.01v-3.32h.13c.37.55,2.65,3.38,2.92,3.7l2.81,3.34c.99,1.17,1.8,2.04,2.07,2.3.18.18.39.27.64.27.23,0,.25-.3.25-.54v-2.81c0-2.17.27-5.89.38-6.99.05-.6.21-.87.49-.87h.46l.08-.15v-.39c0-.1-.02-.13-.17-.13-.18,0-.57.05-1.56.05-1.22,0-1.74-.05-1.92-.05l-.14.12v.41l.1.15h.52c.37,0,.77.22.87.64.05.24.13,1.86.15,2.5.03.82.05,1.63.05,3.1h0ZM725.55,109.79l.04-4.79,2.17.06c.44.02.9.23,1.25.45.37.22,1.86,1.71,1.94,1.84l.2.07.27-.12.05-.17c-.07-.16-.61-2.41-.67-2.65l-.13-.08c-.08,0-.39.03-.66.03l-5.78.02c-1.5,0-2.07-.05-2.44-.05l-.12.11v.4l.08.16h.64c.44,0,.61.12.67.64.02.17.05,2.19.05,3.55v5.51c0,.57-.07.69-.82.69h-.49l-.17.15v.34l.15.18c.15,0,.36-.02.71-.03.32,0,.79-.02,1.4-.02,2.85,0,4.59.02,5.66.02,1.06.02,1.41.03,1.5.03.2,0,.32-.1.37-.25l.74-2.49-.07-.12-.28-.17-.17.05c-.33.39-1.26,1.41-1.68,1.76-.43.35-.92.51-1.25.54-.34.03-1.03.05-1.32.05-.82,0-1.13-.05-1.38-.15-.21-.1-.39-.4-.39-1.25,0-.3-.08-1.9-.08-2.79v-.99c.72,0,1.23.03,1.67.1.33.05.72.27.91.57.1.2.27.57.32.84l.13.13.4-.08.13-.14c-.04-.34-.1-1.13-.1-1.87,0-.57,0-1.43.05-1.71l-.13-.13-.44-.05-.13.15c0,.32-.2.77-.38,1.02-.25.29-.47.44-.76.51-.19.04-.92.09-1.67.09v.03Z"/>
</svg>